<svg preserveAspectRatio="none" width="100%" height="100%" overflow="visible" style="display: block;" viewBox="0 0 16 16" fill="none" xmlns="http://www.w3.org/2000/svg">
<g id="At" clip-path="url(#clip0_0_98)">
<g id="Vector">
</g>
<path id="Vector_2" d="M8 10.5C9.38071 10.5 10.5 9.38071 10.5 8C10.5 6.61929 9.38071 5.5 8 5.5C6.61929 5.5 5.5 6.61929 5.5 8C5.5 9.38071 6.61929 10.5 8 10.5Z" stroke="var(--stroke-0, #BBBBBB)" stroke-linecap="round" stroke-linejoin="round"/>
<path id="Vector_3" d="M11.5 13C10.5494 13.6319 9.22688 14 8 14C6.81331 14 5.65327 13.6481 4.66658 12.9888C3.67988 12.3295 2.91085 11.3925 2.45672 10.2961C2.0026 9.19974 1.88378 7.99334 2.11529 6.82946C2.3468 5.66557 2.91824 4.59647 3.75736 3.75736C4.59647 2.91824 5.66557 2.3468 6.82946 2.11529C7.99334 1.88378 9.19974 2.0026 10.2961 2.45672C11.3925 2.91085 12.3295 3.67988 12.9888 4.66658C13.6481 5.65327 14 6.81331 14 8C14 9.38063 13.5 10.5 12.25 10.5C11 10.5 10.5 9.38063 10.5 8V5.5" stroke="var(--stroke-0, #BBBBBB)" stroke-linecap="round" stroke-linejoin="round"/>
</g>
<defs>
<clipPath id="clip0_0_98">
<rect width="16" height="16" fill="white"/>
</clipPath>
</defs>
</svg>
