<svg width="18" height="18" viewBox="0 0 18 18" fill="none" xmlns="http://www.w3.org/2000/svg">
<g clip-path="url(#clip0_3624_75353)">
<path d="M8.4375 2.8125V1.125C8.4375 0.975816 8.49676 0.832742 8.60225 0.727252C8.70774 0.621763 8.85082 0.5625 9 0.5625C9.14918 0.5625 9.29226 0.621763 9.39775 0.727252C9.50324 0.832742 9.5625 0.975816 9.5625 1.125V2.8125C9.5625 2.96168 9.50324 3.10476 9.39775 3.21025C9.29226 3.31574 9.14918 3.375 9 3.375C8.85082 3.375 8.70774 3.31574 8.60225 3.21025C8.49676 3.10476 8.4375 2.96168 8.4375 2.8125ZM9 4.5C8.10998 4.5 7.23995 4.76392 6.49993 5.25839C5.75991 5.75285 5.18314 6.45566 4.84254 7.27792C4.50195 8.10019 4.41283 9.00499 4.58647 9.87791C4.7601 10.7508 5.18868 11.5526 5.81802 12.182C6.44736 12.8113 7.24918 13.2399 8.12209 13.4135C8.99501 13.5872 9.89981 13.4981 10.7221 13.1575C11.5443 12.8169 12.2471 12.2401 12.7416 11.5001C13.2361 10.76 13.5 9.89002 13.5 9C13.4987 7.80693 13.0242 6.66309 12.1805 5.81946C11.3369 4.97583 10.1931 4.5013 9 4.5ZM4.10203 4.89797C4.20758 5.00352 4.35073 5.06281 4.5 5.06281C4.64927 5.06281 4.79242 5.00352 4.89797 4.89797C5.00352 4.79242 5.06281 4.64927 5.06281 4.5C5.06281 4.35073 5.00352 4.20758 4.89797 4.10203L3.77297 2.97703C3.66742 2.87148 3.52427 2.81219 3.375 2.81219C3.22573 2.81219 3.08258 2.87148 2.97703 2.97703C2.87148 3.08258 2.81219 3.22573 2.81219 3.375C2.81219 3.52427 2.87148 3.66742 2.97703 3.77297L4.10203 4.89797ZM4.10203 13.102L2.97703 14.227C2.87148 14.3326 2.81219 14.4757 2.81219 14.625C2.81219 14.7743 2.87148 14.9174 2.97703 15.023C3.08258 15.1285 3.22573 15.1878 3.375 15.1878C3.52427 15.1878 3.66742 15.1285 3.77297 15.023L4.89797 13.898C4.95023 13.8457 4.99169 13.7837 5.01997 13.7154C5.04826 13.6471 5.06281 13.5739 5.06281 13.5C5.06281 13.4261 5.04826 13.3529 5.01997 13.2846C4.99169 13.2163 4.95023 13.1543 4.89797 13.102C4.84571 13.0498 4.78366 13.0083 4.71538 12.98C4.6471 12.9517 4.57391 12.9372 4.5 12.9372C4.42609 12.9372 4.3529 12.9517 4.28462 12.98C4.21634 13.0083 4.15429 13.0498 4.10203 13.102ZM13.5 5.0625C13.5739 5.06256 13.6471 5.04806 13.7154 5.01983C13.7836 4.9916 13.8457 4.95019 13.898 4.89797L15.023 3.77297C15.1285 3.66742 15.1878 3.52427 15.1878 3.375C15.1878 3.22573 15.1285 3.08258 15.023 2.97703C14.9174 2.87148 14.7743 2.81219 14.625 2.81219C14.4757 2.81219 14.3326 2.87148 14.227 2.97703L13.102 4.10203C13.0233 4.1807 12.9696 4.28097 12.9479 4.39014C12.9261 4.49931 12.9373 4.61248 12.9799 4.71532C13.0225 4.81816 13.0947 4.90604 13.1873 4.96784C13.2798 5.02964 13.3887 5.06259 13.5 5.0625ZM13.898 13.102C13.7924 12.9965 13.6493 12.9372 13.5 12.9372C13.3507 12.9372 13.2076 12.9965 13.102 13.102C12.9965 13.2076 12.9372 13.3507 12.9372 13.5C12.9372 13.6493 12.9965 13.7924 13.102 13.898L14.227 15.023C14.2793 15.0752 14.3413 15.1167 14.4096 15.145C14.4779 15.1733 14.5511 15.1878 14.625 15.1878C14.6989 15.1878 14.7721 15.1733 14.8404 15.145C14.9087 15.1167 14.9707 15.0752 15.023 15.023C15.0752 14.9707 15.1167 14.9087 15.145 14.8404C15.1733 14.7721 15.1878 14.6989 15.1878 14.625C15.1878 14.5511 15.1733 14.4779 15.145 14.4096C15.1167 14.3413 15.0752 14.2793 15.023 14.227L13.898 13.102ZM3.375 9C3.375 8.85082 3.31574 8.70774 3.21025 8.60225C3.10476 8.49676 2.96168 8.4375 2.8125 8.4375H1.125C0.975816 8.4375 0.832742 8.49676 0.727252 8.60225C0.621763 8.70774 0.5625 8.85082 0.5625 9C0.5625 9.14918 0.621763 9.29226 0.727252 9.39775C0.832742 9.50324 0.975816 9.5625 1.125 9.5625H2.8125C2.96168 9.5625 3.10476 9.50324 3.21025 9.39775C3.31574 9.29226 3.375 9.14918 3.375 9ZM9 14.625C8.85082 14.625 8.70774 14.6843 8.60225 14.7898C8.49676 14.8952 8.4375 15.0383 8.4375 15.1875V16.875C8.4375 17.0242 8.49676 17.1673 8.60225 17.2727C8.70774 17.3782 8.85082 17.4375 9 17.4375C9.14918 17.4375 9.29226 17.3782 9.39775 17.2727C9.50324 17.1673 9.5625 17.0242 9.5625 16.875V15.1875C9.5625 15.0383 9.50324 14.8952 9.39775 14.7898C9.29226 14.6843 9.14918 14.625 9 14.625ZM16.875 8.4375H15.1875C15.0383 8.4375 14.8952 8.49676 14.7898 8.60225C14.6843 8.70774 14.625 8.85082 14.625 9C14.625 9.14918 14.6843 9.29226 14.7898 9.39775C14.8952 9.50324 15.0383 9.5625 15.1875 9.5625H16.875C17.0242 9.5625 17.1673 9.50324 17.2727 9.39775C17.3782 9.29226 17.4375 9.14918 17.4375 9C17.4375 8.85082 17.3782 8.70774 17.2727 8.60225C17.1673 8.49676 17.0242 8.4375 16.875 8.4375Z" fill="black"/>
</g>
<defs>
<clipPath id="clip0_3624_75353">
<rect width="18" height="18" fill="white"/>
</clipPath>
</defs>
</svg>
